HIERARCHY
ROOT SpineBase
{
  OFFSET 0.000000 0.000000 0.000000
  CHANNELS 6 Xposition Yposition Zposition Zrotation Xrotation Yrotation
  JOINT SpineMid
  {
    OFFSET 0.000000 34.357603 0.000000
    CHANNELS 3 Zrotation Xrotation Yrotation
    JOINT SpineShoulder
    {
      OFFSET 0.154958 25.464838 -1.035691
      CHANNELS 3 Zrotation Xrotation Yrotation
      JOINT Neck
      {
        OFFSET 0.098157 8.418025 -0.744114
        CHANNELS 3 Zrotation Xrotation Yrotation
        JOINT Head
        {
          OFFSET 0.035994 11.517178 5.458725
          CHANNELS 3 Zrotation Xrotation Yrotation
          End Site
          {
            OFFSET 0 0 0
          }
        }
      }
      JOINT ShoulderLeft
      {
        OFFSET 2.253713 -4.425650 -12.359094
        CHANNELS 3 Zrotation Xrotation Yrotation
        JOINT ElbowLeft
        {
          OFFSET 15.698714 -21.473332 -5.906137
          CHANNELS 3 Zrotation Xrotation Yrotation
          JOINT WristLeft
          {
            OFFSET 7.126406 -22.257996 3.622995
            CHANNELS 3 Zrotation Xrotation Yrotation
            JOINT HandLeft
            {
              OFFSET 0.492379 -6.687586 2.135395
              CHANNELS 3 Zrotation Xrotation Yrotation
              JOINT HandTipLeft
              {
                OFFSET 0.783114 -5.903967 0.183170
                CHANNELS 3 Zrotation Xrotation Yrotation
                End Site
                {
                  OFFSET 0 0 0
                }
              }
              JOINT ThumbLeft
              {
                OFFSET -0.805078 0.085263 -2.120357
                CHANNELS 3 Zrotation Xrotation Yrotation
                End Site
                {
                  OFFSET 0 0 0
                }
              }
            }
          }
        }
      }
      JOINT ShoulderRight
      {
        OFFSET 11.345215 -5.271340 -15.724376
        CHANNELS 3 Zrotation Xrotation Yrotation
        JOINT ElbowRight
        {
          OFFSET 7.458308 -22.424155 -2.376386
          CHANNELS 3 Zrotation Xrotation Yrotation
          JOINT WristRight
          {
            OFFSET 6.051601 -21.992226 4.460722
            CHANNELS 3 Zrotation Xrotation Yrotation
            JOINT HandRight
            {
              OFFSET 0.466771 -5.922111 1.443899
              CHANNELS 3 Zrotation Xrotation Yrotation
              JOINT HandTipRight
              {
                OFFSET 2.047348 -4.275600 -0.406167
                CHANNELS 3 Zrotation Xrotation Yrotation
                End Site
                {
                  OFFSET 0 0 0
                }
              }
              JOINT ThumbRight
              {
                OFFSET 2.872458 -0.008284 -2.311678
                CHANNELS 3 Zrotation Xrotation Yrotation
                End Site
                {
                  OFFSET 0 0 0
                }
              }
            }
          }
        }
      }
    }
  }
  JOINT HipLeft
  {
    OFFSET -5.105473 1.874837 -6.017291
    CHANNELS 3 Zrotation Xrotation Yrotation
    JOINT KneeLeft
    {
      OFFSET 21.339963 -25.719014 -8.692556
      CHANNELS 3 Zrotation Xrotation Yrotation
      JOINT AnkleLeft
      {
        OFFSET -3.140571 -36.274058 -3.813866
        CHANNELS 3 Zrotation Xrotation Yrotation
        JOINT FootLeft
        {
          OFFSET 2.523505 -5.861155 0.746972
          CHANNELS 3 Zrotation Xrotation Yrotation
          End Site
          {
            OFFSET 0 0 0
          }
        }
      }
    }
  }
  JOINT HipRight
  {
    OFFSET 5.964487 1.220701 -1.354879
    CHANNELS 3 Zrotation Xrotation Yrotation
    JOINT KneeRight
    {
      OFFSET -1.912130 -31.667999 7.315623
      CHANNELS 3 Zrotation Xrotation Yrotation
      JOINT AnkleRight
      {
        OFFSET 14.798409 -34.121101 -23.485518
        CHANNELS 3 Zrotation Xrotation Yrotation
        JOINT FootRight
        {
          OFFSET -6.449138 -1.207272 -0.837536
          CHANNELS 3 Zrotation Xrotation Yrotation
          End Site
          {
            OFFSET 0 0 0
          }
        }
      }
    }
  }
}
MOTION
Frames: 8
Frame Time: 0.033333
-28.755327 80.099596 244.057402 -0.000000 0.000000 -22.839703 0.000000 -0.000000 22.839703 -0.000000 0.000000 0.000000 -0.000000 0.000000 0.000000 0.000000 0.000000 0.000000 -0.000000 0.000000 0.000000 -0.000000 0.000000 0.000000 -0.000000 0.000000 0.000000 -0.000000 0.000000 0.000000 0.000000 0.000000 0.000000 0.000000 0.000000 0.000000 -0.000000 0.000000 0.000000 -0.000000 0.000000 0.000000 -0.000000 0.000000 0.000000 -0.000000 0.000000 0.000000 0.000000 0.000000 0.000000 0.000000 0.000000 0.000000 0.000000 -0.000000 22.839703 -0.000000 0.000000 0.000000 -0.000000 0.000000 0.000000 0.000000 0.000000 0.000000 0.000000 -0.000000 22.839703 -0.000000 0.000000 0.000000 -0.000000 0.000000 0.000000 0.000000 0.000000 0.000000
-28.743005 80.093534 244.018339 0.024717 -0.039423 -22.862958 -0.038093 0.026722 22.862975 -0.000000 0.000000 0.000000 -0.000000 0.000000 0.000000 0.000000 0.000000 0.000000 -0.000000 0.000000 0.000000 -0.000000 0.000000 0.000000 -0.916569 0.779957 -0.229643 1.114837 0.022126 0.355330 0.000000 0.000000 0.000000 0.000000 0.000000 0.000000 -0.000000 0.000000 0.000000 -0.000000 0.000000 0.000000 -1.116286 0.643296 -0.215665 -6.596029 -2.517408 -0.147683 0.000000 0.000000 0.000000 0.000000 0.000000 0.000000 -0.038093 0.026722 22.862975 -0.000000 0.000000 0.000000 -13.506736 31.405182 17.339303 0.000000 0.000000 0.000000 -0.038093 0.026722 22.862975 0.494517 1.161570 0.157013 8.805660 -2.514147 1.481150 0.000000 0.000000 0.000000
-28.735395 80.088015 243.983537 0.042171 -0.068347 -22.890262 -0.065435 0.046561 22.890314 -0.000000 0.000000 0.000000 -0.000000 0.000000 0.000000 0.000000 0.000000 0.000000 -0.000000 0.000000 0.000000 -0.000000 0.000000 0.000000 -1.778232 1.254619 -0.458123 2.237543 0.373041 0.728096 0.000000 0.000000 0.000000 0.000000 0.000000 0.000000 -0.000000 0.000000 0.000000 -0.000000 0.000000 0.000000 -2.203228 1.216293 -0.419708 -12.056437 -4.612697 -0.539395 0.000000 0.000000 0.000000 0.000000 0.000000 0.000000 0.809013 0.889568 22.862507 -1.133300 -0.436932 0.016341 -35.245917 49.262491 41.207651 0.000000 0.000000 0.000000 -0.065435 0.046561 22.890314 0.783962 1.883111 0.260570 13.802381 -3.881162 2.551575 0.000000 0.000000 0.000000
-28.732496 80.083039 243.952996 0.052363 -0.086775 -22.921650 -0.082024 0.059529 22.921732 -0.000000 0.000000 0.000000 -0.000000 0.000000 0.000000 0.000000 0.000000 0.000000 -0.000000 0.000000 0.000000 -0.000000 0.000000 0.000000 -2.560380 1.384543 -0.688580 3.341311 1.097971 1.099947 0.000000 0.000000 0.000000 0.000000 0.000000 0.000000 -0.000000 0.000000 0.000000 -0.000000 0.000000 0.000000 -3.247279 1.709637 -0.612312 -16.088637 -6.197290 -0.970304 0.000000 0.000000 0.000000 0.000000 0.000000 0.000000 1.056562 1.148596 22.876830 -1.472454 -0.560546 0.025695 -52.150353 54.407845 59.116808 0.000000 0.000000 0.000000 -0.082024 0.059529 22.921732 0.861663 2.143399 0.315403 15.477396 -4.334714 2.901801 0.000000 0.000000 0.000000
-28.734307 80.078606 243.926716 0.055293 -0.094708 -22.957148 -0.087854 0.065640 22.957244 -0.000000 0.000000 0.000000 -0.000000 0.000000 0.000000 0.000000 0.000000 0.000000 -0.000000 0.000000 0.000000 -0.000000 0.000000 0.000000 -3.240265 1.144087 -0.923164 4.402638 2.227572 1.449688 0.000000 0.000000 0.000000 0.000000 0.000000 0.000000 -0.436928 -0.694919 -0.187839 0.434680 0.696328 0.182548 -4.235778 2.115846 -0.794052 -18.559419 -7.257500 -1.264026 0.000000 0.000000 0.000000 0.000000 0.000000 0.000000 1.193039 1.277320 22.895923 -1.651455 -0.617550 0.037407 -60.533844 55.553817 68.004359 0.000000 0.000000 0.000000 -0.087854 0.065640 22.957244 0.725792 1.934752 0.322725 14.124375 -3.970818 2.468607 0.000000 0.000000 0.000000
-28.740830 80.074716 243.904696 0.050961 -0.092146 -22.996771 -0.082910 0.064913 22.996859 -0.000000 0.000000 0.000000 -0.000000 0.000000 0.000000 0.000000 0.000000 0.000000 -0.000000 0.000000 0.000000 -0.000000 0.000000 0.000000 -3.798912 0.524691 -1.161929 5.404429 3.774797 1.755214 0.000000 0.000000 0.000000 0.000000 0.000000 0.000000 -0.570258 -0.986586 -0.273326 0.565630 0.989247 0.263533 -5.157467 2.429617 -0.965748 -19.413329 -7.803019 -1.294918 0.000000 0.000000 0.000000 0.000000 0.000000 0.000000 1.216074 1.273256 22.920893 -1.667085 -0.606705 0.051968 -62.405943 55.797829 70.123780 0.000000 0.000000 0.000000 -0.082910 0.064913 22.996859 0.379416 1.262966 0.279913 9.706991 -2.718870 1.339603 0.000000 0.000000 0.000000
-28.778382 80.091181 243.915113 0.004128 -0.116417 -22.991281 -0.049272 0.105557 22.991331 -0.000000 0.000000 0.000000 -0.000000 0.000000 0.000000 0.000000 0.000000 0.000000 -0.746021 -0.487779 -0.155513 0.744721 0.489761 0.149154 -4.909671 -1.897968 -1.785828 7.956014 8.297688 2.256339 0.000000 0.000000 0.000000 0.000000 0.000000 0.000000 -0.789731 -1.540902 -0.441102 0.778130 1.546791 0.419978 -6.604813 2.354626 -1.303038 -15.721076 -6.312729 0.234741 0.000000 0.000000 0.000000 0.000000 0.000000 0.000000 0.890296 1.016784 22.961334 -1.220628 -0.472356 0.015763 -55.333687 56.031885 63.972375 0.000000 0.000000 0.000000 -0.049272 0.105557 22.991331 -0.000000 0.000000 0.000000 3.268019 -0.480271 0.368764 0.000000 0.000000 0.000000
-28.795567 80.095219 243.896537 -0.017759 -0.091882 -23.074238 -0.019673 0.091492 23.074240 -0.000000 0.000000 0.000000 0.283950 0.864052 -0.138928 0.000000 0.000000 0.000000 -0.844829 -0.666707 -0.261796 0.841831 0.670488 0.251955 -5.206883 -2.864930 -1.995557 8.666854 10.855734 2.438939 0.000000 0.000000 0.000000 0.000000 0.000000 0.000000 -0.950508 -1.989923 -0.580358 0.930874 1.999180 0.547608 -7.580897 2.553577 -1.496387 -15.750118 -6.304621 0.630912 0.000000 0.000000 0.000000 0.000000 0.000000 0.000000 0.624884 0.671099 23.025924 -0.819920 -0.281271 0.042014 -39.760024 52.593951 47.693018 0.000000 0.000000 0.000000 -0.019673 0.091492 23.074240 -1.392473 -2.318552 -0.076870 -16.590985 5.897030 -2.820613 0.000000 0.000000 0.000000
